<svg xmlns="http://www.w3.org/2000/svg" xmlns:xlink="http://www.w3.org/1999/xlink" width="82" height="82" viewBox="0 0 82 82">
  <defs>
    <clipPath id="clip-path">
      <rect id="Rectangle_437" data-name="Rectangle 437" width="82" height="82" transform="translate(-12528 -9887)" fill="#fff" stroke="#707070" stroke-width="1"/>
    </clipPath>
  </defs>
  <g id="Mask_Group_1" data-name="Mask Group 1" transform="translate(12528 9887)" clip-path="url(#clip-path)">
    <g id="Group_445" data-name="Group 445" transform="translate(-2.582)">
      <path id="Path_7449" data-name="Path 7449" d="M437.172-286.353l26.182-10.675c.9-.367,1.831-1.716,1.561-2.32-3.854-8.65-10.181-22.857-10.181-22.857a1.981,1.981,0,0,0-1.783-1.262,2.153,2.153,0,0,0-1.973,1.16l-16.108,33.844s-2.338,4,2.3,2.111" transform="translate(-12936.518 -9559.531)" fill="#fbae17"/>
      <path id="Path_7450" data-name="Path 7450" d="M481.555-221.822s-16.918-37.853-17.617-39.429c-.787-1.782-1.414-2.1-3.3-1.336l-32.569,13.346a2.181,2.181,0,0,0,.062,3.882l8.431,4.294a3.422,3.422,0,0,0,2.716.269l15.138-6.238c1.882-.764,2.508-.448,3.3,1.336.7,1.574,8.451,18.888,8.451,18.888a2.856,2.856,0,0,0,1.5,1.654l12.469,6.378c1.328.629,2.79.143,1.416-3.044" transform="translate(-12932.666 -9591.179)" fill="#f6921e"/>
      <path id="Path_7451" data-name="Path 7451" d="M427.375-213.653l-14.3-7.442c-1.706-.88-2.309-.7-3.166,1.054-1.641,3.357-3.249,6.733-4.849,10.111-1.5,3.169-3.013,6.326-4.429,9.529-.678,1.532-.132,2.492,1.5,2.524.244-.1.732-.282,1.193-.511,8.019-3.947,24.031-11.88,24.031-11.88,3.35-1.686.023-3.385.023-3.385" transform="translate(-12918.764 -9611.84)" fill="#f05a22"/>
      <path id="Path_7452" data-name="Path 7452" d="M461.427-216.046l15.855,8.11s2.345.769,1.361-1.514l-5.218-11.659a1.672,1.672,0,0,0-2.211-1.1l-8.622,3.516s-3.95,1.218-1.165,2.643" transform="translate(-12950.198 -9612.45)" fill="#f26f21"/>
    </g>
  </g>
</svg>
