<svg height='300px' width='300px'  fill="#000000" xmlns="http://www.w3.org/2000/svg" xmlns:xlink="http://www.w3.org/1999/xlink" version="1.0" x="0px" y="0px" viewBox="0 0 100 100" enable-background="new 0 0 100 100" xml:space="preserve"><path d="M90,52.172c1.104,0,2-0.896,2-2V30c0-1.104-0.896-2-2-2H72V10c0-1.104-0.896-2-2-2H58.085c-1.104,0-2,0.896-2,2s0.896,2,2,2  H68v18v18H30c-1.104,0-2,0.896-2,2v18H12V12h24.163c1.104,0,2-0.896,2-2s-0.896-2-2-2H10c-1.104,0-2,0.896-2,2v60  c0,1.104,0.896,2,2,2h18v18c0,1.104,0.896,2,2,2h6.163c1.104,0,2-0.896,2-2s-0.896-2-2-2H32V70V52h36v36h-8.955  c-0.021,0-0.04,0.006-0.061,0.006C57.976,77.312,48.953,68.915,38,68.915c-0.553,0-1,0.447-1,1s0.447,1,1,1  c10.435,0,18.928,8.42,19.071,18.82c-0.012,0.088-0.026,0.174-0.026,0.265c0,1.104,0.896,2,2,2H90c1.104,0,2-0.896,2-2V69.756  c0-1.104-0.896-2-2-2s-2,0.896-2,2V88H72V50V32h16v18.172C88,51.276,88.896,52.172,90,52.172z"></path></svg>